{
  "title": "Terminator Genisys (2015) 1080p KORSUB HDTV x264 AAC - Showscen0",
  "uid": 12205386,
  "size": 20083965446,
  "categoryP": "video",
  "categoryS": "movies",
  "magnet": "?xt=urn:btih:b58147a164d772288069fdee91c987e39b355aca&amp;dn=Terminator+Genisys+%282015%29+1080p+KORSUB+HDTV+x264+AAC+-+Showscen0&amp;tr=udp%3A%2F%2Ftracker.openbittorrent.com%3A80&amp;tr=udp%3A%2F%2Fopen.demonii.com%3A1337&amp;tr=udp%3A%2F%2Ftracker.coppersurfer.tk%3A6969&amp;tr=udp%3A%2F%2Fexodus.desync.com%3A6969",
  "seeders": 57,
  "leechers": 13,
  "uploader": "SS132203",
  "files": 1,
  "time": 1438935650,
  "description": "Terminator Genisys (2015) 1080p KORSUB HDTV x264 AAC - Showscen0wn3dCLAY\n &lt;a href=&quot;\nhttp://imgsparrow.co/image/M1&quot; rel=&quot;nofollow&quot; target=&quot;_NEW&quot;&gt;\nhttp://imgsparrow.co/image/M1&lt;/a&gt;\n &lt;a href=&quot;\nhttp://imgsparrow.co/image/9b&quot; rel=&quot;nofollow&quot; target=&quot;_NEW&quot;&gt;\nhttp://imgsparrow.co/image/9b&lt;/a&gt;\n\nInfo : - \n\nThank Showscen0wn3dCLAY Not ME!\n\nOriginal Uploder's Note: \n1)We share for all, Clay take that as an example\nHave KORSUB\nand after credit scene is included :) \n2) guys thanks for support , im uploading from home speed be Patience - enjoy\n\nGeneral\nComplete name :Terminator.Genisys.2015.1080p.KORSUB.HDTV.x264.AAC-Showscen0wn3dCLAY.mp4\nFormat : MPEG-4\nFormat profile : Base Media / Version 2\nCodec ID : mp42\nFile size : 18.7 GiB\nDuration : 2h 0mn\nOverall bit rate : 22.2 Mbps\nEncoded date : UTC 2015-08-07 02:11:52\nTagged date : UTC 2015-08-07 02:11:52\n\nVideo\nID : 2\nFormat : AVC\nFormat/Info : Advanced Video Codec\nFormat profile : &lt;a class=&quot;__cf_email__&quot; href=&quot;/cdn-cgi/l/email-protection&quot; data-cfemail=&quot;e6ae8f818ea6aad2c8d7&quot;&gt;[email&amp;#160;protected]&lt;/a&gt;&lt;script data-cfhash='f9e31' type=&quot;text/javascript&quot;&gt;\n/* &lt;![CDATA[ */!function(){try{var t=&quot;currentScript&quot;in document?document.currentScript:function(){for(var t=document.getElementsByTagName(&quot;script&quot;),e=t.length;e--;)if(t[e].getAttribute(&quot;data-cfhash&quot;))return t[e]}();if(t&amp;&amp;t.previousSibling){var e,r,n,i,c=t.previousSibling,a=c.getAttribute(&quot;data-cfemail&quot;);if(a){for(e=&quot;&quot;,r=parseInt(a.substr(0,2),16),n=2;a.length-n;n+=2)i=parseInt(a.substr(n,2),16)^r,e+=String.fromCharCode(i);e=document.createTextNode(e),c.parentNode.replaceChild(e,c)}t.parentNode.removeChild(t);}}catch(u){}}()/* ]]&gt; */&lt;/script&gt;\nFormat settings, CABAC : No\nFormat settings, ReFrames : 1 frame\nFormat settings, GOP : M=1, N=30\nCodec ID : avc1\nCodec ID/Info : Advanced Video Coding\nDuration : 2h 0mn\nSource duration : 2h 0mn\nBit rate : 22.1 Mbps\nWidth : 1 920 pixels\nHeight : 1 080 pixels\nDisplay aspect ratio : 16:9\nFrame rate mode : Constant\nFrame rate : 30.000 fps\nColor space : YUV\nChroma subsampling : 4:2:0\nBit depth : 8 bits\nScan type : Progressive\nBits/(Pixel*Frame) : 0.355\nStream size : 18.6 GiB (99%)\nSource stream size : 18.6 GiB (99%)\nLanguage : English\nEncoded date : UTC 2015-08-07 02:11:52\nTagged date : UTC 2015-08-07 02:11:52\nColor range : Limited\nColor primaries : BT.709\nTransfer characteristics : BT.709\nMatrix coefficients : BT.709\nmdhd_Duration : 7224905\n\nAudio\nID : 1\nFormat : AAC\nFormat/Info : Advanced Audio Codec\nFormat profile : LC\nCodec ID : 40\nDuration : 2h 0mn\nSource duration : 2h 0mn\nBit rate mode : Constant\nBit rate : 128 Kbps\nChannel(s) : 2 channels\nChannel positions : Front: L R\nSampling rate : 48.0 KHz\nCompression mode : Lossy\nStream size : 110 MiB (1%)\nSource stream size : 110 MiB (1%)\nLanguage : English\nEncoded date : UTC 2015-08-07 02:11:52\nTagged date : UTC 2015-08-07 02:11:52\nmdhd_Duration : 7224906\n\nScreens : - \n &lt;a href=&quot;\nhttp://imgsparrow.co/image/8tc&quot; rel=&quot;nofollow&quot; target=&quot;_NEW&quot;&gt;\nhttp://imgsparrow.co/image/8tc&lt;/a&gt; &lt;a href=&quot;\nhttp://imgsparrow.co/image/8td&quot; rel=&quot;nofollow&quot; target=&quot;_NEW&quot;&gt;\nhttp://imgsparrow.co/image/8td&lt;/a&gt; &lt;a href=&quot;\nhttp://imgsparrow.co/image/8to&quot; rel=&quot;nofollow&quot; target=&quot;_NEW&quot;&gt;\nhttp://imgsparrow.co/image/8to&lt;/a&gt; &lt;a href=&quot;\nhttp://imgsparrow.co/image/8tM&quot; rel=&quot;nofollow&quot; target=&quot;_NEW&quot;&gt;\nhttp://imgsparrow.co/image/8tM&lt;/a&gt; &lt;a href=&quot;\nhttp://imgsparrow.co/image/8tm&quot; rel=&quot;nofollow&quot; target=&quot;_NEW&quot;&gt;\nhttp://imgsparrow.co/image/8tm&lt;/a&gt; &lt;a href=&quot;\nhttp://imgsparrow.co/image/8tF&quot; rel=&quot;nofollow&quot; target=&quot;_NEW&quot;&gt;\nhttp://imgsparrow.co/image/8tF&lt;/a&gt; &lt;a href=&quot;\nhttp://imgsparrow.co/image/8tO&quot; rel=&quot;nofollow&quot; target=&quot;_NEW&quot;&gt;\nhttp://imgsparrow.co/image/8tO&lt;/a&gt;\n &lt;a href=&quot;\nhttp://imgsparrow.co/image/N2&quot; rel=&quot;nofollow&quot; target=&quot;_NEW&quot;&gt;\nhttp://imgsparrow.co/image/N2&lt;/a&gt;",
  "parsed": {
    "xt": "urn:btih:b58147a164d772288069fdee91c987e39b355aca",
    "dn": "Terminator Genisys (2015) 1080p KORSUB HDTV x264 AAC - Showscen0",
    "tr": [
      "udp://exodus.desync.com:6969",
      "udp://open.demonii.com:1337",
      "udp://tracker.coppersurfer.tk:6969",
      "udp://tracker.openbittorrent.com:80"
    ],
    "infoHash": "b58147a164d772288069fdee91c987e39b355aca",
    "infoHashBuffer": {
      "type": "Buffer",
      "data": [
        181,
        129,
        71,
        161,
        100,
        215,
        114,
        40,
        128,
        105,
        253,
        238,
        145,
        201,
        135,
        227,
        155,
        53,
        90,
        202
      ]
    },
    "name": "Terminator Genisys (2015) 1080p KORSUB HDTV x264 AAC - Showscen0",
    "announce": [
      "udp://exodus.desync.com:6969",
      "udp://open.demonii.com:1337",
      "udp://tracker.coppersurfer.tk:6969",
      "udp://tracker.openbittorrent.com:80"
    ],
    "urlList": []
  },
  "previous": 1,
  "peers": 10,
  "last_updated": "2016-12-27T10:55:47.733Z"
}